<mxfile host="app.diagrams.net" modified="2024-02-19T19:52:07.299Z" agent="Mozilla/5.0 (Macintosh; Intel Mac OS X 10_15_7) AppleWebKit/537.36 (KHTML, like Gecko) Chrome/121.0.0.0 Safari/537.36" etag="pwftpyUmwpJ7CsXfbL2z" version="23.1.5" type="github">
  <diagram name="Page-1" id="sUV660QRLb9GWtnvWiSY">
    <mxGraphModel dx="1430" dy="879" grid="1" gridSize="10" guides="1" tooltips="1" connect="1" arrows="1" fold="1" page="1" pageScale="1" pageWidth="1654" pageHeight="1169" math="0" shadow="0">
      <root>
        <mxCell id="0" />
        <mxCell id="1" parent="0" />
        <mxCell id="YQ2VtmDsd7B6_WzJCYEh-53" value="" style="html=1;whiteSpace=wrap;" vertex="1" parent="1">
          <mxGeometry x="440" y="1030" width="480" height="107" as="geometry" />
        </mxCell>
        <mxCell id="YQ2VtmDsd7B6_WzJCYEh-41" value="" style="html=1;whiteSpace=wrap;" vertex="1" parent="1">
          <mxGeometry x="440" y="880" width="500" height="126" as="geometry" />
        </mxCell>
        <mxCell id="YQ2VtmDsd7B6_WzJCYEh-29" value="" style="html=1;whiteSpace=wrap;" vertex="1" parent="1">
          <mxGeometry x="479" y="750" width="341" height="110" as="geometry" />
        </mxCell>
        <mxCell id="YQ2VtmDsd7B6_WzJCYEh-20" value="" style="html=1;whiteSpace=wrap;" vertex="1" parent="1">
          <mxGeometry x="472" y="545" width="340" height="180" as="geometry" />
        </mxCell>
        <mxCell id="YQ2VtmDsd7B6_WzJCYEh-18" value="" style="html=1;whiteSpace=wrap;" vertex="1" parent="1">
          <mxGeometry x="470" y="384" width="330" height="130" as="geometry" />
        </mxCell>
        <mxCell id="YQ2VtmDsd7B6_WzJCYEh-16" value="" style="html=1;whiteSpace=wrap;" vertex="1" parent="1">
          <mxGeometry x="470" y="60" width="530" height="290" as="geometry" />
        </mxCell>
        <mxCell id="YQ2VtmDsd7B6_WzJCYEh-57" style="rounded=0;orthogonalLoop=1;jettySize=auto;html=1;exitX=0.5;exitY=0.5;exitDx=0;exitDy=0;exitPerimeter=0;entryX=0;entryY=0.5;entryDx=0;entryDy=0;" edge="1" parent="1" source="YQ2VtmDsd7B6_WzJCYEh-1" target="YQ2VtmDsd7B6_WzJCYEh-16">
          <mxGeometry relative="1" as="geometry" />
        </mxCell>
        <mxCell id="YQ2VtmDsd7B6_WzJCYEh-58" style="rounded=0;orthogonalLoop=1;jettySize=auto;html=1;exitX=0.5;exitY=0.5;exitDx=0;exitDy=0;exitPerimeter=0;entryX=0;entryY=0.5;entryDx=0;entryDy=0;" edge="1" parent="1" source="YQ2VtmDsd7B6_WzJCYEh-1" target="YQ2VtmDsd7B6_WzJCYEh-18">
          <mxGeometry relative="1" as="geometry" />
        </mxCell>
        <mxCell id="YQ2VtmDsd7B6_WzJCYEh-59" style="rounded=0;orthogonalLoop=1;jettySize=auto;html=1;exitX=0.5;exitY=0.5;exitDx=0;exitDy=0;exitPerimeter=0;entryX=0;entryY=0.5;entryDx=0;entryDy=0;" edge="1" parent="1" source="YQ2VtmDsd7B6_WzJCYEh-1" target="YQ2VtmDsd7B6_WzJCYEh-20">
          <mxGeometry relative="1" as="geometry" />
        </mxCell>
        <mxCell id="YQ2VtmDsd7B6_WzJCYEh-60" style="rounded=0;orthogonalLoop=1;jettySize=auto;html=1;exitX=0.5;exitY=0.5;exitDx=0;exitDy=0;exitPerimeter=0;entryX=0;entryY=0.5;entryDx=0;entryDy=0;" edge="1" parent="1" source="YQ2VtmDsd7B6_WzJCYEh-1" target="YQ2VtmDsd7B6_WzJCYEh-29">
          <mxGeometry relative="1" as="geometry" />
        </mxCell>
        <mxCell id="YQ2VtmDsd7B6_WzJCYEh-61" style="rounded=0;orthogonalLoop=1;jettySize=auto;html=1;exitX=0.5;exitY=0.5;exitDx=0;exitDy=0;exitPerimeter=0;entryX=0;entryY=0.5;entryDx=0;entryDy=0;" edge="1" parent="1" source="YQ2VtmDsd7B6_WzJCYEh-1" target="YQ2VtmDsd7B6_WzJCYEh-41">
          <mxGeometry relative="1" as="geometry" />
        </mxCell>
        <mxCell id="YQ2VtmDsd7B6_WzJCYEh-1" value="Employee" style="shape=umlActor;verticalLabelPosition=bottom;verticalAlign=top;html=1;" vertex="1" parent="1">
          <mxGeometry x="170" y="373" width="30" height="60" as="geometry" />
        </mxCell>
        <mxCell id="YQ2VtmDsd7B6_WzJCYEh-62" style="rounded=0;orthogonalLoop=1;jettySize=auto;html=1;exitX=0.5;exitY=0.5;exitDx=0;exitDy=0;exitPerimeter=0;entryX=0;entryY=0.5;entryDx=0;entryDy=0;" edge="1" parent="1" source="YQ2VtmDsd7B6_WzJCYEh-2" target="YQ2VtmDsd7B6_WzJCYEh-16">
          <mxGeometry relative="1" as="geometry" />
        </mxCell>
        <mxCell id="YQ2VtmDsd7B6_WzJCYEh-63" style="rounded=0;orthogonalLoop=1;jettySize=auto;html=1;exitX=0.5;exitY=0.5;exitDx=0;exitDy=0;exitPerimeter=0;entryX=0;entryY=0.5;entryDx=0;entryDy=0;" edge="1" parent="1" source="YQ2VtmDsd7B6_WzJCYEh-2" target="YQ2VtmDsd7B6_WzJCYEh-18">
          <mxGeometry relative="1" as="geometry" />
        </mxCell>
        <mxCell id="YQ2VtmDsd7B6_WzJCYEh-64" style="rounded=0;orthogonalLoop=1;jettySize=auto;html=1;exitX=0.5;exitY=0.5;exitDx=0;exitDy=0;exitPerimeter=0;entryX=0;entryY=0.5;entryDx=0;entryDy=0;" edge="1" parent="1" source="YQ2VtmDsd7B6_WzJCYEh-2" target="YQ2VtmDsd7B6_WzJCYEh-20">
          <mxGeometry relative="1" as="geometry" />
        </mxCell>
        <mxCell id="YQ2VtmDsd7B6_WzJCYEh-65" style="rounded=0;orthogonalLoop=1;jettySize=auto;html=1;exitX=0.5;exitY=0.5;exitDx=0;exitDy=0;exitPerimeter=0;entryX=0;entryY=0.5;entryDx=0;entryDy=0;" edge="1" parent="1" source="YQ2VtmDsd7B6_WzJCYEh-2" target="YQ2VtmDsd7B6_WzJCYEh-29">
          <mxGeometry relative="1" as="geometry" />
        </mxCell>
        <mxCell id="YQ2VtmDsd7B6_WzJCYEh-66" style="rounded=0;orthogonalLoop=1;jettySize=auto;html=1;exitX=0.5;exitY=0.5;exitDx=0;exitDy=0;exitPerimeter=0;entryX=0;entryY=0.5;entryDx=0;entryDy=0;" edge="1" parent="1" source="YQ2VtmDsd7B6_WzJCYEh-2" target="YQ2VtmDsd7B6_WzJCYEh-41">
          <mxGeometry relative="1" as="geometry" />
        </mxCell>
        <mxCell id="YQ2VtmDsd7B6_WzJCYEh-67" style="rounded=0;orthogonalLoop=1;jettySize=auto;html=1;exitX=0.5;exitY=0.5;exitDx=0;exitDy=0;exitPerimeter=0;entryX=0;entryY=0.5;entryDx=0;entryDy=0;" edge="1" parent="1" source="YQ2VtmDsd7B6_WzJCYEh-2" target="YQ2VtmDsd7B6_WzJCYEh-53">
          <mxGeometry relative="1" as="geometry" />
        </mxCell>
        <mxCell id="YQ2VtmDsd7B6_WzJCYEh-2" value="IT User" style="shape=umlActor;verticalLabelPosition=bottom;verticalAlign=top;html=1;" vertex="1" parent="1">
          <mxGeometry x="170" y="585" width="30" height="60" as="geometry" />
        </mxCell>
        <mxCell id="YQ2VtmDsd7B6_WzJCYEh-3" value="Receive message synchronously" style="ellipse;whiteSpace=wrap;html=1;" vertex="1" parent="1">
          <mxGeometry x="490" y="180" width="140" height="70" as="geometry" />
        </mxCell>
        <mxCell id="YQ2VtmDsd7B6_WzJCYEh-4" value="Send message" style="ellipse;whiteSpace=wrap;html=1;" vertex="1" parent="1">
          <mxGeometry x="490" y="100" width="140" height="70" as="geometry" />
        </mxCell>
        <mxCell id="YQ2VtmDsd7B6_WzJCYEh-5" value="Delete message locally" style="ellipse;whiteSpace=wrap;html=1;" vertex="1" parent="1">
          <mxGeometry x="670" y="180" width="140" height="70" as="geometry" />
        </mxCell>
        <mxCell id="YQ2VtmDsd7B6_WzJCYEh-6" value="View message history" style="ellipse;whiteSpace=wrap;html=1;" vertex="1" parent="1">
          <mxGeometry x="670" y="100" width="140" height="70" as="geometry" />
        </mxCell>
        <mxCell id="YQ2VtmDsd7B6_WzJCYEh-9" value="Initiate a new one-to-one&amp;nbsp; conversation" style="ellipse;whiteSpace=wrap;html=1;" vertex="1" parent="1">
          <mxGeometry x="490" y="424" width="140" height="70" as="geometry" />
        </mxCell>
        <mxCell id="YQ2VtmDsd7B6_WzJCYEh-10" value="Block a user" style="ellipse;whiteSpace=wrap;html=1;" vertex="1" parent="1">
          <mxGeometry x="650" y="424" width="140" height="70" as="geometry" />
        </mxCell>
        <mxCell id="YQ2VtmDsd7B6_WzJCYEh-11" value="Join a group" style="ellipse;whiteSpace=wrap;html=1;" vertex="1" parent="1">
          <mxGeometry x="482" y="565" width="140" height="70" as="geometry" />
        </mxCell>
        <mxCell id="YQ2VtmDsd7B6_WzJCYEh-12" value="Leave a group" style="ellipse;whiteSpace=wrap;html=1;" vertex="1" parent="1">
          <mxGeometry x="632" y="645" width="140" height="70" as="geometry" />
        </mxCell>
        <mxCell id="YQ2VtmDsd7B6_WzJCYEh-13" value="Create a new group" style="ellipse;whiteSpace=wrap;html=1;" vertex="1" parent="1">
          <mxGeometry x="482" y="645" width="140" height="70" as="geometry" />
        </mxCell>
        <mxCell id="YQ2VtmDsd7B6_WzJCYEh-15" value="Pin Message" style="ellipse;whiteSpace=wrap;html=1;" vertex="1" parent="1">
          <mxGeometry x="670" y="260" width="140" height="70" as="geometry" />
        </mxCell>
        <mxCell id="YQ2VtmDsd7B6_WzJCYEh-17" value="&lt;font style=&quot;font-size: 14px;&quot;&gt;Message&lt;/font&gt;" style="text;align=center;fontStyle=1;verticalAlign=middle;spacingLeft=3;spacingRight=3;strokeColor=none;rotatable=0;points=[[0,0.5],[1,0.5]];portConstraint=eastwest;html=1;" vertex="1" parent="1">
          <mxGeometry x="900" y="70" width="80" height="26" as="geometry" />
        </mxCell>
        <mxCell id="YQ2VtmDsd7B6_WzJCYEh-19" value="&lt;span style=&quot;color: rgb(0, 0, 0); font-family: Helvetica; font-size: 12px; font-style: normal; font-variant-ligatures: normal; font-variant-caps: normal; letter-spacing: normal; orphans: 2; text-align: center; text-indent: 0px; text-transform: none; widows: 2; word-spacing: 0px; -webkit-text-stroke-width: 0px; background-color: rgb(251, 251, 251); text-decoration-thickness: initial; text-decoration-style: initial; text-decoration-color: initial; float: none; display: inline !important;&quot;&gt;&lt;b&gt;One-to-One Chat&lt;/b&gt;&lt;/span&gt;" style="text;align=center;fontStyle=0;verticalAlign=middle;spacingLeft=3;spacingRight=3;strokeColor=none;rotatable=0;points=[[0,0.5],[1,0.5]];portConstraint=eastwest;html=1;" vertex="1" parent="1">
          <mxGeometry x="602" y="390" width="80" height="26" as="geometry" />
        </mxCell>
        <mxCell id="YQ2VtmDsd7B6_WzJCYEh-23" value="" style="html=1;whiteSpace=wrap;" vertex="1" parent="1">
          <mxGeometry x="820" y="140" width="160" height="198" as="geometry" />
        </mxCell>
        <mxCell id="YQ2VtmDsd7B6_WzJCYEh-21" value="Group Chat" style="text;align=center;fontStyle=1;verticalAlign=middle;spacingLeft=3;spacingRight=3;strokeColor=none;rotatable=0;points=[[0,0.5],[1,0.5]];portConstraint=eastwest;html=1;" vertex="1" parent="1">
          <mxGeometry x="590" y="545" width="80" height="26" as="geometry" />
        </mxCell>
        <mxCell id="YQ2VtmDsd7B6_WzJCYEh-22" value="Unmute a conversation" style="ellipse;whiteSpace=wrap;html=1;" vertex="1" parent="1">
          <mxGeometry x="830" y="258" width="140" height="70" as="geometry" />
        </mxCell>
        <mxCell id="YQ2VtmDsd7B6_WzJCYEh-24" value="Message Notifications" style="text;align=center;fontStyle=1;verticalAlign=middle;spacingLeft=3;spacingRight=3;strokeColor=none;rotatable=0;points=[[0,0.5],[1,0.5]];portConstraint=eastwest;html=1;" vertex="1" parent="1">
          <mxGeometry x="860" y="144" width="80" height="26" as="geometry" />
        </mxCell>
        <mxCell id="YQ2VtmDsd7B6_WzJCYEh-14" value="Mute a conversation" style="ellipse;whiteSpace=wrap;html=1;" vertex="1" parent="1">
          <mxGeometry x="830" y="180" width="140" height="70" as="geometry" />
        </mxCell>
        <mxCell id="YQ2VtmDsd7B6_WzJCYEh-25" value="Send Group chat invitation" style="ellipse;whiteSpace=wrap;html=1;" vertex="1" parent="1">
          <mxGeometry x="632" y="565" width="140" height="70" as="geometry" />
        </mxCell>
        <mxCell id="YQ2VtmDsd7B6_WzJCYEh-26" value="Receive message asynchronously" style="ellipse;whiteSpace=wrap;html=1;" vertex="1" parent="1">
          <mxGeometry x="490" y="260" width="140" height="70" as="geometry" />
        </mxCell>
        <mxCell id="YQ2VtmDsd7B6_WzJCYEh-27" value="View directory" style="ellipse;whiteSpace=wrap;html=1;" vertex="1" parent="1">
          <mxGeometry x="499" y="781" width="140" height="70" as="geometry" />
        </mxCell>
        <mxCell id="YQ2VtmDsd7B6_WzJCYEh-28" value="Update Profile" style="ellipse;whiteSpace=wrap;html=1;" vertex="1" parent="1">
          <mxGeometry x="665" y="781" width="140" height="70" as="geometry" />
        </mxCell>
        <mxCell id="YQ2VtmDsd7B6_WzJCYEh-30" value="Contacts and Profile" style="text;align=center;fontStyle=1;verticalAlign=middle;spacingLeft=3;spacingRight=3;strokeColor=none;rotatable=0;points=[[0,0.5],[1,0.5]];portConstraint=eastwest;html=1;" vertex="1" parent="1">
          <mxGeometry x="622" y="755" width="80" height="26" as="geometry" />
        </mxCell>
        <mxCell id="YQ2VtmDsd7B6_WzJCYEh-31" value="Read Receipts On/Off" style="ellipse;whiteSpace=wrap;html=1;" vertex="1" parent="1">
          <mxGeometry x="455" y="920" width="140" height="70" as="geometry" />
        </mxCell>
        <mxCell id="YQ2VtmDsd7B6_WzJCYEh-33" value="Text Font Setting" style="ellipse;whiteSpace=wrap;html=1;" vertex="1" parent="1">
          <mxGeometry x="620" y="920" width="140" height="70" as="geometry" />
        </mxCell>
        <mxCell id="YQ2VtmDsd7B6_WzJCYEh-40" value="Timestamp On/Off" style="ellipse;whiteSpace=wrap;html=1;" vertex="1" parent="1">
          <mxGeometry x="790" y="920" width="140" height="70" as="geometry" />
        </mxCell>
        <mxCell id="YQ2VtmDsd7B6_WzJCYEh-43" value="App settings" style="text;align=center;fontStyle=1;verticalAlign=middle;spacingLeft=3;spacingRight=3;strokeColor=none;rotatable=0;points=[[0,0.5],[1,0.5]];portConstraint=eastwest;html=1;" vertex="1" parent="1">
          <mxGeometry x="650" y="886" width="80" height="26" as="geometry" />
        </mxCell>
        <mxCell id="YQ2VtmDsd7B6_WzJCYEh-45" value="View All logged messages" style="ellipse;whiteSpace=wrap;html=1;" vertex="1" parent="1">
          <mxGeometry x="450" y="1061" width="140" height="70" as="geometry" />
        </mxCell>
        <mxCell id="YQ2VtmDsd7B6_WzJCYEh-47" value="Create a new user" style="ellipse;whiteSpace=wrap;html=1;" vertex="1" parent="1">
          <mxGeometry x="770" y="1061" width="140" height="70" as="geometry" />
        </mxCell>
        <mxCell id="YQ2VtmDsd7B6_WzJCYEh-49" value="Delete a user" style="ellipse;whiteSpace=wrap;html=1;" vertex="1" parent="1">
          <mxGeometry x="610" y="1061" width="140" height="70" as="geometry" />
        </mxCell>
        <mxCell id="YQ2VtmDsd7B6_WzJCYEh-54" value="IT Privileges" style="text;align=center;fontStyle=1;verticalAlign=middle;spacingLeft=3;spacingRight=3;strokeColor=none;rotatable=0;points=[[0,0.5],[1,0.5]];portConstraint=eastwest;html=1;" vertex="1" parent="1">
          <mxGeometry x="640" y="1030" width="80" height="26" as="geometry" />
        </mxCell>
      </root>
    </mxGraphModel>
  </diagram>
</mxfile>
